<svg width="493" height="80" viewBox="0 0 493 80" fill="none" xmlns="http://www.w3.org/2000/svg">
<path d="M20.672 13.952C6.848 13.376 -2.944 26.048 2.144 38.912C8.672 55.424 21.44 64.928 38.912 67.808C48.896 69.536 55.808 60.512 52.64 50.912C50.816 45.44 49.568 39.776 47.744 34.304C46.208 29.504 44.96 24.416 42.176 20.384C39.968 17.024 36.8 12.32 32.672 12.704C28.16 13.184 24.416 14.144 20.672 13.952ZM34.112 31.52C37.568 37.664 41.984 44.096 38.24 51.776C36.512 55.04 33.92 56.384 29.696 54.848C22.976 52.256 17.504 49.184 14.72 41.792C10.88 31.52 13.664 26.912 25.952 25.568C29.504 25.568 32.672 28.928 34.112 31.52ZM63.146 17.12C64.778 23.072 65.93 29.6 69.002 34.88C74.09 43.616 80.426 51.776 86.57 59.936C93.194 68.864 100.394 69.92 110.474 65.504C116.042 63.104 115.37 58.784 115.658 54.272C115.946 45.632 119.21 43.04 117.962 31.04C117.482 26.24 117.578 20 112.01 16.736C109.418 15.2 107.69 15.584 107.594 18.656C107.402 26.816 107.306 34.976 107.594 43.232C107.786 49.184 106.442 51.488 100.49 52.832C92.522 54.656 87.146 51.296 82.538 43.904C76.49 34.016 71.21 24.32 73.898 12.128C74.474 10.016 70.826 8.672 68.618 7.904C66.986 7.328 65.066 9.536 64.394 11.072C63.626 12.608 64.778 17.024 64.202 16.736C62.666 16.256 63.05 16.832 63.146 17.12ZM163.733 2.528C160.085 2.528 156.917 1.27999 154.037 2.816C147.509 6.17599 140.885 7.232 133.781 7.136C131.861 7.136 126.677 7.04 128.117 9.72799C129.557 11.744 130.805 15.008 132.437 15.584C136.949 16.928 141.845 16.928 146.549 17.792C148.277 18.08 150.773 18.656 151.253 19.808C152.597 22.88 153.461 26.336 153.749 29.792C155.093 41.6 155.765 53.408 157.493 65.12C157.781 67.328 161.045 70.304 163.445 70.784C167.285 71.648 168.245 67.904 167.861 64.928C167.477 61.088 166.133 57.248 165.365 53.408C164.213 47.168 163.541 40.832 162.005 34.688C158.741 21.632 163.157 15.008 176.501 14.048C177.845 13.952 179.381 14.528 180.533 13.952C182.165 13.184 185.333 12.032 185.621 11.072C185.909 9.44 183.893 7.424 182.453 6.848C176.885 4.64 171.221 3.10399 165.365 1.568C164.309 1.27999 164.501 2.528 163.733 2.528ZM228.067 23.648C230.083 24.032 231.043 22.688 231.331 21.824C231.715 20.96 230.755 19.328 229.987 18.368C221.251 8.384 205.507 11.936 198.499 19.712C196.771 21.728 194.659 25.568 195.427 27.104C197.827 32.768 200.803 39.584 207.811 42.464C213.379 44.768 219.043 47.168 224.419 49.952C227.971 51.776 227.779 55.328 223.939 56.288C219.619 57.44 215.587 61.088 210.403 57.44C208.579 56.096 204.931 57.152 202.051 57.152C201.379 57.152 201.859 58.208 201.475 59.168C200.995 60.704 207.235 62.912 213.187 66.272C215.683 67.616 218.851 68.096 221.635 68C224.803 68 227.875 66.752 231.043 66.464C236.227 65.984 242.947 61.664 241.795 58.112C240.067 53.312 236.035 45.824 232.867 45.728C222.211 45.44 217.027 34.88 207.331 34.016C206.275 33.92 205.507 32.576 206.083 32.192C215.491 24.416 215.683 21.536 228.067 23.648ZM263.392 11.744C264.352 11.648 264.736 10.688 264.352 10.112C262.144 7.04 261.184 2.816 257.824 0.895994C256.576 0.415995 253.696 0.223997 253.504 0.895994C252.928 3.008 252.16 6.368 251.968 6.848C250.048 12.992 259.359 11.744 263.392 11.744ZM272.224 72.32C271.552 68.192 269.728 64.16 268.672 60.128C267.424 55.232 267.712 49.952 266.56 45.152C264.832 39.968 263.296 34.88 261.376 29.792C260.992 28.736 259.456 27.776 258.208 27.392C252.928 25.568 250.528 28.16 251.776 34.592C254.176 46.496 256.864 58.208 259.552 70.016C259.84 72.224 260.416 72.32 261.184 74.336C262.24 76.928 262.336 80.768 269.92 78.272C272.224 77.408 272.512 74.144 272.224 72.32ZM353.188 58.016C352.132 52.352 348.484 46.784 344.932 41.984C340.708 36.416 335.428 31.52 330.628 26.432C326.5 22.016 322.468 17.504 318.052 13.568C314.5 10.4 303.268 12.128 300.388 15.872C299.524 17.024 298.852 19.04 299.236 20.096C299.62 21.056 301.924 22.112 303.076 21.92C310.66 20.48 315.556 24.224 320.068 29.504C321.316 30.944 322.852 32.576 324.58 33.248C332.932 36.032 334.276 44.576 338.98 50.336C339.46 50.816 338.596 52.448 338.212 53.504C337.252 55.616 336.292 57.824 335.044 59.84C331.876 64.832 327.652 69.248 321.508 69.152C311.236 69.056 300.868 67.808 290.5 67.136C288.004 66.944 285.508 67.136 283.012 67.136C282.148 67.232 281.188 68.768 282.628 69.248C290.98 72.416 299.14 76.16 307.78 78.368C312.964 79.808 318.82 78.656 324.388 78.944C333.7 79.424 341.284 75.776 347.332 69.44C350.308 66.368 353.86 61.376 353.188 58.016ZM297.508 62.144C298.372 63.584 299.716 66.272 301.828 65.504C302.212 65.312 304.228 63.68 304.516 62.528C305.188 59.456 305.956 56.192 305.38 53.312C304.516 49.088 302.5 45.152 301.06 41.024C298.564 33.632 296.644 26.048 293.668 19.04C291.844 14.912 288.772 10.784 282.628 12.32C279.748 13.088 286.852 22.016 288.004 27.392C290.596 39.584 291.364 51.296 297.508 62.144ZM415.468 59.072C410.86 57.632 405.58 56.192 401.164 56.48C391.66 57.536 388.684 55.52 388.396 49.472C388.204 46.112 386.668 42.752 385.516 39.488C384.748 37.28 382.828 35.36 382.636 33.248C382.54 31.616 383.884 28.928 385.324 28.16C389.452 26.048 393.964 24.608 398.38 22.976C402.124 21.632 403.948 19.232 402.124 15.488C400.3 11.648 397.036 10.016 392.908 11.264C384.652 13.856 376.492 16.736 368.236 19.424C363.34 21.056 361.516 24.512 364.108 28.16C368.908 34.688 370.156 41.984 369.676 49.952C369.58 52.16 370.828 54.752 371.98 56.864C375.34 62.816 381.004 64.928 387.628 65.504C396.46 66.368 405.292 67.616 414.22 68C416.044 68.096 419.5 65.984 419.98 64.064C420.556 61.76 417.292 59.648 415.468 59.072ZM425.452 39.008C423.436 38.144 420.844 37.568 418.636 37.856C410.956 39.008 403.372 40.256 395.788 41.888C392.428 42.56 391.564 45.248 394.156 47.264C396.556 49.088 399.82 49.952 402.796 50.72C404.332 51.104 406.444 51.296 408.076 51.008C414.124 49.568 420.172 48.224 426.028 46.496C427.372 46.112 429.196 43.904 429.004 42.944C428.62 41.408 426.988 39.68 425.452 39.008ZM440.53 27.776C439.186 28.64 438.322 32 438.802 33.92C440.818 41.024 443.026 48.032 445.906 54.848C447.538 58.784 450.61 62.144 453.01 65.792C454.066 67.328 457.234 66.272 457.234 63.872C456.946 51.392 453.49 39.584 446.674 28.736C445.906 27.488 441.874 26.912 440.53 27.776ZM492.178 59.648C491.506 58.208 489.01 57.632 487.474 56.48C479.602 50.624 480.946 48.224 485.746 41.984C487.474 39.68 489.202 36.8 489.586 34.016C490.738 25.76 483.73 22.976 478.354 20C472.594 16.64 465.874 14.72 458.002 11.552C456.466 10.976 454.162 18.944 454.546 20.96C455.314 26.432 460.594 23.936 464.146 24.128C468.274 24.32 473.458 23.84 474.226 28.832C474.994 33.92 469.714 33.44 466.258 34.208C461.746 35.264 459.634 39.296 462.322 42.176C470.29 50.72 478.546 59.072 486.994 67.232C488.626 68.768 491.506 67.904 492.466 66.272C493.33 64.352 493.042 61.568 492.178 59.648Z" fill="#F0F0F0"/>
</svg>
